<svg xmlns="http://www.w3.org/2000/svg" xmlns:svg="http://www.w3.org/2000/svg" id="svg114" width="290" height="290" version="1.1"><metadata id="metadata120"/><path id="path2" fill="#1a5dad" fill-rule="nonzero" d="m 252.507,145 c 0,64.618 -53.234,117.8 -117.92,117.8 -64.685,0 -117.92,-53.185 -117.92,-117.8 0,-64.622 51.99,-117.8 117.92,-117.8 63.437,0 117.92,53.181 117.92,117.8"/><path id="path4" fill="#fff" fill-rule="nonzero" d="m 161.187,207 c 50.379,20.724 41.636,-31.647 14.782,-71.747 -15.22,-22.718 -35.07,-41.645 -47.59,-50.78 -41.513,-30.298 -67.14,-11.922 -37.826,47.83 9.4777,19.319 21.651,32.358 31.159,44.648 7.261,9.3828 21.404,14.081 16.422,18.534 -5.6144,5.0207 -19.209,-17.124 -19.209,-17.124 -10.04,-12.11 -19.61,-25.03 -29.473,-42.76 -22.535,-40.499 -19.286,-81.833 21.503,-63.828 34.615,15.288 67.678,58.166 80.971,88.616 6.1401,14.059 22.88,69.692 -30.437,47.2"/><path id="path6" fill="#ee293d" fill-rule="nonzero" d="m 4.523,179.92 c 22.163,-14.76 43.176,-24.29 78.935,-36.1 50.249,-16.6 88.069,-27.758 134.47,-51.082 20.77,-10.438 56.81,-33.847 69.7,-54.198 -3.86,7.876 -15.81,23.206 -21.22,29.987 -62.96,78.833 -197.07,74.363 -261,112.21"/><path id="path8" fill="#fff" fill-rule="nonzero" d="m 36.675,122.303 c 20.284,0.15916 18.294,-0.0407 18.531,0.1969 0.35457,0 16.196,27.282 16.196,27.517 0,0.11657 -0.11844,-9.6951 -0.11844,-21.966 0,-1.4172 -3.8995,-5.5505 -3.7829,-5.5505 5.7896,0 13.357,0.11844 13.357,0.11844 -2.8354,3.3069 -3.4018,3.0357 -3.4254,5.079 -0.07995,6.5716 -0.15468,18.716 0,32.358 0.02204,2.0448 1.5371,2.8343 4.0194,6.3777 h -18.562 c -6.0291,-10.038 -17.077,-28.869 -17.022,-28.816 0.08481,0.0863 -0.238,11.812 0.11545,21.257 0.11956,3.1216 1.5382,4.133 4.1405,6.9688 0,0 2.9931,-0.0803 -14.542,0.11694 5.3196,-2.8343 4.6131,-6.3766 4.6105,-6.4947 -0.19129,-13.052 -0.0396,-24.211 -0.0396,-31.415 0,-1.1806 -0.08033,-1.0641 -3.7433,-5.5505"/><path id="path10" fill="#fff" fill-rule="nonzero" d="m 100.097,142.46 c 1.7033,-5.9126 3.1582,-11.197 3.8487,-14.642 0.11694,-0.59107 -1.3002,-2.7159 -3.5464,-4.8425 l -0.15916,-0.32991 c 10.831,0.0351 22.146,0.0934 22.146,0.0934 2.9554,7.2042 9.6936,27.397 14.777,39.798 1.3443,3.2778 3.6649,3.8965 3.6649,3.8965 -9.221,-0.11657 -26.333,-0.0377 -26.242,-0.11657 4.609,-4.136 4.0179,-4.136 2.0082,-10.157 h -14.421 c -2.9554,6.8478 0.92098,10.063 1.4172,10.038 -3.2823,0.16925 -14.421,0 -14.421,0 6.0291,-4.2529 5.6731,-5.5505 5.6731,-5.5505 1.6566,-5.892 3.5756,-12.347 5.2554,-18.191 l 5.9167,0.001 c -1.2711,4.0766 -2.5421,8.1498 -2.5421,8.1498 h 11.47 l -6.3852,-16.298 c 0,0 -1.2711,4.0747 -2.5425,8.148 l -5.9167,-0.001"/><path id="path12" fill="#fff" fill-rule="nonzero" d="m 199.167,143.05 c 1.7,-5.9111 3.1567,-11.197 3.8457,-14.644 0.11657,-0.58808 -1.3021,-2.7129 -3.5468,-4.841 l -0.16028,-0.32841 c 10.834,0.0351 22.152,0.0934 22.152,0.0934 2.9509,7.2042 9.6906,27.398 14.773,39.798 1.3428,3.2793 3.6634,3.898 3.6634,3.898 -9.2165,-0.11956 -26.329,-0.0377 -26.241,-0.11956 4.612,-4.1315 4.0209,-4.1315 2.0112,-10.155 h -14.424 c -2.9557,6.8492 0.91911,10.063 1.4156,10.04 -3.2796,0.16775 -14.42,0 -14.42,0 6.0276,-4.2529 5.6742,-5.552 5.6742,-5.552 1.6566,-5.8931 3.5759,-12.346 5.2572,-18.189 h 5.9152 c -1.274,4.0762 -2.5395,8.1509 -2.5395,8.1509 h 11.464 l -6.3848,-16.298 c 0,0 -1.267,4.0732 -2.5395,8.1468 h -5.9152"/><path id="path14" fill="#fff" fill-rule="nonzero" d="m 180.517,133.37 c -0.23651,-8.3874 0,-11.103 0,-11.103 -3.6664,2.9539 -1.8169,2.5772 -10.993,1.0637 -26.445,-4.3635 -28.46,20.325 -14.069,25.863 12.08,4.6497 16.361,5.5606 14.539,9.9186 -0.59107,1.4201 -11.584,6.6157 -22.931,-3.8954 l 0.23352,14.644 c 1.4186,-1.4609 5.3226,-4.133 5.3226,-4.133 0.11657,0 12.3,5.3678 23.286,-0.238 16.908,-8.6195 8.4693,-22.572 -9.5741,-28.106 -15.014,-4.6064 -0.82758,-15.354 14.066,-3.8969"/><path id="path16" fill="#fff" fill-rule="nonzero" d="m 136.247,37.898 c 0,0.5283 -0.4319,0.9617 -0.96021,0.9617 -0.52531,0 -0.96021,-0.4334 -0.96021,-0.9617 0,-0.52382 0.4349,-0.95872 0.96021,-0.95872 0.52831,0 0.96021,0.4349 0.96021,0.95872"/><path id="path18" fill="#fff" fill-rule="nonzero" d="m 142.907,52.44 c 0,0.64786 -0.53727,1.1806 -1.1821,1.1806 -0.64935,0 -1.1836,-0.53278 -1.1836,-1.1806 0,-0.64637 0.53428,-1.1792 1.1836,-1.1792 0.64487,0 1.1821,0.53279 1.1821,1.1792"/><path id="path20" fill="#fff" fill-rule="nonzero" d="m 160.187,76.206 c 0,0.64674 -0.53241,1.1806 -1.1821,1.1806 -0.64637,0 -1.1821,-0.53391 -1.1821,-1.1806 0,-0.64786 0.49617,-1.1821 1.1459,-1.1821 0.64935,0 1.2184,0.53428 1.2184,1.1821"/><path id="path22" fill="#fff" fill-rule="nonzero" d="m 132.407,60.633 c 0,0.52681 -0.43191,0.95871 -0.96021,0.95871 -0.52718,0 -0.96208,-0.43191 -0.96208,-0.95871 0,-0.52569 0.4349,-0.96058 0.96208,-0.96058 0.5283,0 0.96021,0.4349 0.96021,0.96058"/><path id="path24" fill="#fff" fill-rule="nonzero" d="m 142.757,66.096 c 0,0.52382 -0.43377,0.95871 -0.95908,0.95871 -0.52681,0 -0.96171,-0.4349 -0.96171,-0.95871 0,-0.52531 0.4349,-0.95909 0.96171,-0.95909 0.52531,0 0.95908,0.43378 0.95908,0.95909"/><path id="path26" fill="#fff" fill-rule="nonzero" d="m 129.307,50.815 c 0,0.64823 -0.53391,1.1806 -1.1821,1.1806 -0.64786,0 -1.1821,-0.53241 -1.1821,-1.1806 0,-0.64786 0.53428,-1.1821 1.1821,-1.1821 0.64823,0 1.1821,0.53428 1.1821,1.1821"/><path id="path28" fill="#fff" fill-rule="nonzero" d="m 113.647,60.338 c 0,0.52681 -0.4334,0.96021 -0.9617,0.96021 -0.52681,0 -0.96021,-0.4334 -0.96021,-0.96021 0,-0.52569 0.4334,-0.96058 0.96021,-0.96058 0.5283,0 0.9617,0.4349 0.9617,0.96058"/><path id="path30" fill="#fff" fill-rule="nonzero" d="m 116.447,62.255 c 0,0.52868 -0.4334,0.96208 -0.9617,0.96208 -0.52681,0 -0.9617,-0.4334 -0.9617,-0.96208 0,-0.52531 0.43489,-0.95722 0.9617,-0.95722 0.5283,0 0.9617,0.43191 0.9617,0.95722"/><path id="path32" fill="#fff" fill-rule="nonzero" d="m 119.257,64.175 c 0,0.5283 -0.43341,0.9617 -0.96059,0.9617 -0.5268,0 -0.9617,-0.4334 -0.9617,-0.9617 0,-0.52382 0.4349,-0.95722 0.9617,-0.95722 0.52718,0 0.96059,0.4334 0.96059,0.95722"/><path id="path34" fill="#fff" fill-rule="nonzero" d="m 114.977,67.867 c 0,0.52681 -0.43639,0.96021 -0.96171,0.96021 -0.5283,0 -0.96207,-0.4334 -0.96207,-0.96021 0,-0.52531 0.43377,-0.95871 0.96207,-0.95871 0.52532,0 0.96171,0.4334 0.96171,0.95871"/><path id="path36" fill="#fff" fill-rule="nonzero" d="m 92.661,83.514 c 0,0.52681 -0.4349,0.95872 -0.9617,0.95872 -0.52681,0 -0.9617,-0.43191 -0.9617,-0.95872 0,-0.52681 0.4349,-0.96058 0.9617,-0.96058 0.52681,0 0.9617,0.43378 0.9617,0.96058"/><path id="path38" fill="#fff" fill-rule="nonzero" d="m 96.797,88.535 c 0,0.52569 -0.4349,0.95909 -0.9617,0.95909 -0.52681,0 -0.9617,-0.4334 -0.9617,-0.95909 0,-0.5283 0.4349,-0.96021 0.9617,-0.96021 0.52681,0 0.9617,0.43191 0.9617,0.96021"/><path id="path40" fill="#fff" fill-rule="nonzero" d="m 93.509,169.58 c 0,0.52718 -0.4334,0.95909 -0.96058,0.95909 -0.52681,0 -0.96021,-0.43191 -0.96021,-0.95909 0,-0.52531 0.4334,-0.96021 0.96021,-0.96021 0.52718,0 0.96058,0.4349 0.96058,0.96021"/><path id="path42" fill="#fff" fill-rule="nonzero" d="m 94.1,191.94 c 0,0.64786 -0.53428,1.1792 -1.1821,1.1792 -0.64823,0 -1.1821,-0.53129 -1.1821,-1.1792 0,-0.64823 0.53391,-1.1806 1.1821,-1.1806 0.64786,0 1.1821,0.53241 1.1821,1.1806"/><path id="path44" fill="#fff" fill-rule="nonzero" d="m 81.389,203.39 c 0,0.52382 -0.4334,0.95871 -0.95872,0.95871 -0.52681,0 -0.9617,-0.43489 -0.9617,-0.95871 0,-0.5283 0.4349,-0.96058 0.9617,-0.96058 0.52531,0 0.95872,0.43228 0.95872,0.96058"/><path id="path46" fill="#fff" fill-rule="nonzero" d="m 66.171,208.03 c 0,0.64786 -0.53727,1.1792 -1.1836,1.1792 -0.64823,0 -1.1821,-0.53129 -1.1821,-1.1792 0,-0.64936 0.53391,-1.1821 1.1821,-1.1821 0.64637,0 1.1836,0.53278 1.1836,1.1821"/><path id="path48" fill="#fff" fill-rule="nonzero" d="m 63.067,197.7 c 0,0.64488 -0.53391,1.1792 -1.1806,1.1792 -0.64786,0 -1.1821,-0.53428 -1.1821,-1.1792 0,-0.64935 0.53428,-1.1821 1.1821,-1.1821 0.64674,0 1.1806,0.53279 1.1806,1.1821"/><path id="path50" fill="#fff" fill-rule="nonzero" d="m 61.296,204.27 c 0,0.52681 -0.4349,0.95872 -0.9617,0.95872 -0.52681,0 -0.96208,-0.43191 -0.96208,-0.95872 0,-0.52531 0.43527,-0.96021 0.96208,-0.96021 0.52681,0 0.9617,0.4349 0.9617,0.96021"/><path id="path52" fill="#fff" fill-rule="nonzero" d="m 49.915,198.81 c 0,0.52531 -0.4334,0.96021 -0.95872,0.96021 -0.5283,0 -0.96208,-0.4349 -0.96208,-0.96021 0,-0.52532 0.43378,-0.95909 0.96208,-0.95909 0.52531,0 0.95872,0.43377 0.95872,0.95909"/><path id="path54" fill="#fff" fill-rule="nonzero" d="m 89.665,217.26 c 0,0.52718 -0.39716,0.96058 -0.92247,0.96058 -0.52681,0 -0.99832,-0.4334 -0.99832,-0.96058 0,-0.52531 0.4349,-0.96021 0.96021,-0.96021 0.5283,0 0.96058,0.4349 0.96058,0.96021"/><path id="path56" fill="#fff" fill-rule="nonzero" d="m 101.637,208.48 c 0,0.64936 -0.49617,1.1821 -1.1459,1.1821 -0.64786,0 -1.2184,-0.53278 -1.2184,-1.1821 0,-0.64524 0.53391,-1.1792 1.1821,-1.1792 0.64936,0 1.1822,0.53391 1.1822,1.1792"/><path id="path58" fill="#fff" fill-rule="nonzero" d="m 103.007,219.77 c 0,0.52681 -0.473,0.96208 -0.99682,0.96208 -0.5283,0 -0.9617,-0.43527 -0.9617,-0.96208 0,-0.52531 0.4334,-0.95722 0.9617,-0.95722 0.52382,0 0.99682,0.43191 0.99682,0.95722"/><path id="path60" fill="#fff" fill-rule="nonzero" d="m 152.207,208.99 c 0,0.52568 -0.4334,0.96058 -0.95871,0.96058 -0.5298,0 -0.9632,-0.4349 -0.9632,-0.96058 0,-0.52681 0.4334,-0.95872 0.9632,-0.95872 0.52531,0 0.95871,0.43191 0.95871,0.95872"/><path id="path62" fill="#fff" fill-rule="nonzero" d="m 129.307,217.11 c 0,0.5268 -0.43191,0.95871 -0.96021,0.95871 -0.52532,0 -0.96021,-0.43191 -0.96021,-0.95871 0,-0.52532 0.43489,-0.96021 0.96021,-0.96021 0.5283,0 0.96021,0.43489 0.96021,0.96021"/><path id="path64" fill="#fff" fill-rule="nonzero" d="m 190.927,228.78 c 0,0.52538 -0.4349,0.95886 -0.96021,0.95886 -0.5283,0 -0.9632,-0.43348 -0.9632,-0.95886 0,-0.52689 0.4349,-0.96033 0.9632,-0.96033 0.52531,0 0.96021,0.43344 0.96021,0.96033"/><path id="path66" fill="#fff" fill-rule="nonzero" d="m 195.947,183.38 c 0,0.64786 -0.53241,1.1821 -1.1821,1.1821 -0.64936,0 -1.1821,-0.53428 -1.1821,-1.1821 0,-0.64824 0.53278,-1.1821 1.1821,-1.1821 0.64973,0 1.1821,0.5339 1.1821,1.1821"/><path id="path68" fill="#fff" fill-rule="nonzero" d="m 186.497,189.8 c 0,0.52568 -0.4334,0.96058 -0.9632,0.96058 -0.52568,0 -0.95909,-0.4349 -0.95909,-0.96058 0,-0.52681 0.43341,-0.95872 0.95909,-0.95872 0.5298,0 0.9632,0.43191 0.9632,0.95872"/><path id="path70" fill="#fff" fill-rule="nonzero" d="m 195.807,191.65 c 0,0.64786 -0.53278,1.1821 -1.1821,1.1821 -0.64972,0 -1.1821,-0.53428 -1.1821,-1.1821 0,-0.64674 0.53242,-1.1806 1.1821,-1.1806 0.64936,0 1.1821,0.53391 1.1821,1.1806"/><path id="path72" fill="#fff" fill-rule="nonzero" d="m 186.497,203.09 c 0,0.52531 -0.4334,0.95871 -0.9632,0.95871 -0.52568,0 -0.95909,-0.4334 -0.95909,-0.95871 0,-0.52681 0.43341,-0.96059 0.95909,-0.96059 0.5298,0 0.9632,0.43378 0.9632,0.96059"/><path id="path74" fill="#fff" fill-rule="nonzero" d="m 210.577,176.96 c 0,0.52681 -0.43489,0.96059 -0.96058,0.96059 -0.52531,0 -0.95871,-0.43378 -0.95871,-0.96059 0,-0.5268 0.4334,-0.95871 0.95871,-0.95871 0.52569,0 0.96058,0.43191 0.96058,0.95871"/><path id="path76" fill="#fff" fill-rule="nonzero" d="m 212.907,182.79 c 0,0.64935 -0.49318,1.1821 -1.1425,1.1821 -0.64972,0 -1.2188,-0.53279 -1.2188,-1.1821 0,-0.64824 0.53278,-1.1792 1.1792,-1.1792 0.64936,0 1.1821,0.53091 1.1821,1.1792"/><path id="path78" fill="#fff" fill-rule="nonzero" d="m 229.497,189.73 c 0,0.64786 -0.52979,1.1806 -1.1821,1.1806 -0.64972,0 -1.1821,-0.53278 -1.1821,-1.1806 0,-0.64637 0.53242,-1.1821 1.1821,-1.1821 0.65235,0 1.1821,0.53577 1.1821,1.1821"/><path id="path80" fill="#fff" fill-rule="nonzero" d="m 212.647,202.06 c 0,0.52532 -0.43789,0.95909 -0.96357,0.95909 -0.52532,0 -0.96021,-0.43377 -0.96021,-0.95909 0,-0.5283 0.43489,-0.96021 0.96021,-0.96021 0.52568,0 0.96357,0.43191 0.96357,0.96021"/><path id="path82" fill="#fff" fill-rule="nonzero" d="m 223.287,192.02 c 0,0.5268 -0.4334,0.95871 -0.95871,0.95871 -0.52531,0 -0.96021,-0.43191 -0.96021,-0.95871 0,-0.52681 0.4349,-0.96021 0.96021,-0.96021 0.52531,0 0.95871,0.4334 0.95871,0.96021"/><path id="path84" fill="#fff" fill-rule="nonzero" d="m 221.327,207.52 c 0,0.52718 -0.4334,0.95909 -0.95871,0.95909 -0.5298,0 -0.9632,-0.43191 -0.9632,-0.95909 0,-0.52531 0.4334,-0.96021 0.9632,-0.96021 0.52531,0 0.95871,0.4349 0.95871,0.96021"/><path id="path86" fill="#fff" fill-rule="nonzero" d="m 225.837,181.76 c 0,0.81001 -0.66878,1.4754 -1.4784,1.4754 -0.81001,0 -1.4773,-0.66542 -1.4773,-1.4754 0,-0.81001 0.66729,-1.4754 1.4773,-1.4754 0.80964,0 1.4784,0.66542 1.4784,1.4754"/><path id="path88" fill="#fff" fill-rule="nonzero" d="m 224.357,177.26 -0.44087,4.059 -4.028,0.44348 4.0602,0.44088 0.44498,4.2088 0.44536,-4.2088 3.9884,-0.51523 -4.025,-0.36913 -0.44498,-4.059"/><path id="path90" fill="#fff" fill-rule="nonzero" d="m 215.487,207.44 c 0,0.81002 -0.66692,1.4754 -1.4769,1.4754 -0.81001,0 -1.4784,-0.66542 -1.4784,-1.4754 0,-0.81001 0.66842,-1.4754 1.4784,-1.4754 0.81001,0 1.4769,0.66542 1.4769,1.4754"/><path id="path92" fill="#fff" fill-rule="nonzero" d="m 214.017,202.94 -0.44499,4.059 -4.0254,0.44349 4.0616,0.44386 0.44535,4.2059 0.44499,-4.2059 3.9873,-0.51672 -4.028,-0.37063 -0.44087,-4.059"/><path id="path94" fill="#fff" fill-rule="nonzero" d="m 105.257,85.505 c 0,0.81001 -0.66691,1.4754 -1.4769,1.4754 -0.81301,0 -1.4784,-0.66542 -1.4784,-1.4754 0,-0.81001 0.66542,-1.4754 1.4784,-1.4754 0.81001,0 1.4769,0.66542 1.4769,1.4754"/><path id="path96" fill="#fff" fill-rule="nonzero" d="m 103.777,81.003 -0.44387,4.0587 -4.028,0.44386 4.0646,0.44087 0.44386,4.2089 0.442,-4.2089 3.9903,-0.51373 -4.028,-0.37101 -0.44087,-4.0587"/><path id="path98" fill="#fff" fill-rule="nonzero" d="m 160.227,49.783 c 0,0.81001 -0.66841,1.4769 -1.4784,1.4769 -0.81001,0 -1.4739,-0.66692 -1.4739,-1.4769 0,-0.81001 0.66393,-1.4769 1.4739,-1.4769 0.81001,0 1.4784,0.66692 1.4784,1.4769"/><path id="path100" fill="#fff" fill-rule="nonzero" d="m 158.747,45.277 -0.44088,4.0602 -4.028,0.44386 4.0646,0.44349 0.44087,4.2077 0.44499,-4.2077 3.9888,-0.51821 -4.028,-0.36914 -0.44237,-4.0602"/><path id="path102" fill="#fff" fill-rule="nonzero" d="m 93.397,231.07 c 0,0.81001 -0.66692,1.4755 -1.4769,1.4755 -0.813,0 -1.4799,-0.6655 -1.4799,-1.4755 0,-0.80855 0.66692,-1.477 1.4799,-1.477 0.81001,0 1.4769,0.66841 1.4769,1.477"/><path id="path104" fill="#fff" fill-rule="nonzero" d="m 91.955,226.56 -0.442,4.0602 -4.0269,0.44367 4.0635,0.44222 0.44349,4.2077 0.44237,-4.2077 3.9899,-0.51518 -4.0265,-0.37071 L 91.955,226.56"/><path id="path106" fill="#ee293d" fill-rule="nonzero" d="m 287.617,38.541 c -17.97,53.312 -89.96,94.479 -150.56,133.78 -36.559,23.714 -72.856,51.011 -97.844,74.239 -6.5866,6.1255 1.3421,-2.2899 -1.1821,0.29629 34.872,-40.153 74.986,-64.069 97.153,-79.122 37.489,-25.469 58.812,-31.888 123.49,-91.463"/><path id="path108" fill="#ee293d" fill-rule="nonzero" d="m 19.512,170.62 c -6.4536,3.1571 -12.235,6.2768 -17.14,9.3219 l 2.9846,1.0861 c 4.2896,-2.6419 9.4399,-5.3973 14.865,-7.8259"/><path id="path110" fill="#ee293d" fill-rule="nonzero" d="m 53.584,230.28 c -5.8995,5.1489 -11.997,10.645 -18.113,16.406 l -0.27013,4.0706 c 5.5998,-5.768 12.479,-11.998 20.418,-18.608"/><path id="path112" fill="#fff" fill-rule="nonzero" d="m 161.187,207 c 50.379,20.724 41.636,-31.647 14.782,-71.747 -15.22,-22.718 -33.99,-40.74 -47.59,-50.78 -15.88,-11.725 -17.43,-12.697 -17.43,-12.697 35.462,16.831 67.678,58.165 80.971,88.616 6.1401,14.059 22.88,69.692 -30.437,47.2"/></svg>